<?xml version="1.0" encoding="UTF-8" standalone="no"?>
<svg width="30px" height="30px" viewBox="0 0 30 30" version="1.1" xmlns="http://www.w3.org/2000/svg" xmlns:xlink="http://www.w3.org/1999/xlink" xmlns:sketch="http://www.bohemiancoding.com/sketch/ns">
    <!-- Generator: Sketch 3.4.3 (16044) - http://www.bohemiancoding.com/sketch -->
    <title>rabbit</title>
    <desc>Created with Sketch.</desc>
    <defs></defs>
    <g id="Page-1" stroke="none" stroke-width="1" fill="none" fill-rule="evenodd" sketch:type="MSPage">
        <g id="rabbit" sketch:type="MSArtboardGroup" fill="#D8D8D8">
            <path d="M2.89666407,17.6287036 C2.90140318,17.8833545 2.92700188,18.1451373 2.97498392,18.4138949 C3.57635706,20.8440106 4.3796401,22.3928071 10.1327447,21.8295047 C11.2301233,21.7189631 12.3961522,23.0241356 13.3503345,24.5018097 C11.8584795,24.9193682 10.6139161,24.8183123 9.95583699,25.4625563 C9.14497752,26.2563687 8.76691759,27.3630849 9.78252788,27.6627297 C10.7981382,27.9623744 11.4125807,27.8968391 13.3250418,27.3858139 C13.8996105,27.2322845 14.3286052,27.0259792 14.6476358,26.8124671 C15.1080216,27.7401334 15.3878937,28.4241538 15.3878937,28.4241538 L23.5048212,25.4125524 C21.8358053,22.7961342 19.1999366,24.6713955 19.1999366,24.6713955 C19.1999366,24.6713955 22.9569783,22.5290866 23.3473302,19.8040465 C23.8105762,19.9395553 24.3006467,20.0122344 24.8076923,20.0122344 C27.6753247,20.0122344 30,17.687559 30,14.8199267 C30,11.9522943 27.6753247,9.62761899 24.8076923,9.62761899 C23.986731,9.62761899 23.21027,9.81814785 22.5201153,10.1573998 C17.8955663,1.98886357 10.6809546,1.19198463 9.85922565,3.1537957 C8.97298701,5.26961843 13.8461537,6.17646922 13.8461537,6.17646922 C13.8461537,6.17646922 7.95788434,5.19123553 8.74778726,8.01648496 C9.48936433,10.6688871 13.8986648,7.83802972 20.4907103,11.933862 C20.074162,12.5557017 19.7884086,13.2725445 19.6728173,14.0450233 C17.2155334,13.5923483 15.4927234,11.5106994 11.8569337,11.5106994 C9.0690955,11.5106995 6.03514603,12.4763965 4.30938032,14.2477252 C3.91104583,13.5553514 3.16381179,13.0891574 2.30769231,13.0891574 C1.03318904,13.0891574 0,14.1223465 0,15.3968498 C0,16.671353 1.03318904,17.7045421 2.30769231,17.7045421 C2.5112471,17.7045421 2.70864639,17.6781872 2.89666407,17.6287036 Z" id="Oval-1" sketch:type="MSShapeGroup"></path>
        </g>
    </g>
</svg>