<?xml version="1.0" encoding="UTF-8" standalone="no"?>
<svg width="30px" height="30px" viewBox="0 0 30 30" version="1.1" xmlns="http://www.w3.org/2000/svg" xmlns:xlink="http://www.w3.org/1999/xlink" xmlns:sketch="http://www.bohemiancoding.com/sketch/ns">
    <!-- Generator: Sketch 3.4.3 (16044) - http://www.bohemiancoding.com/sketch -->
    <title>turtle</title>
    <desc>Created with Sketch.</desc>
    <defs></defs>
    <g id="Page-1" stroke="none" stroke-width="1" fill="none" fill-rule="evenodd" sketch:type="MSPage">
        <g id="turtle" sketch:type="MSArtboardGroup" fill="#D8D8D8">
            <path d="M4.21156729,20.8854905 C2.51736714,20.6568564 0,20.7804458 0,20.7804458 C0,20.7804458 0.137743246,20.0146572 2.71604684,19.000443 C2.68950184,18.8880252 2.6754555,18.770779 2.6754555,18.6502521 C2.6754555,17.9603384 3.13569604,17.3779197 3.76589995,17.193273 C3.71420345,16.8612556 3.68747566,16.5041592 3.68747566,16.1202017 C3.68747566,11.6488152 7.31225056,8.02404033 11.783637,8.02404033 C14.5061723,8.02404033 16.9148397,9.36786824 18.3825178,11.4284025 C18.6484782,11.1988915 18.9949251,11.0601008 19.3737882,11.0601008 C19.8489899,11.0601008 20.2731934,11.2784498 20.5515432,11.6202924 C21.2065996,10.6412485 21.6877059,9.59479719 22.2069556,8.50833629 C22.2666211,8.3633741 22.3344585,8.2226374 22.4098943,8.0866998 C22.4259703,8.05360817 22.4421059,8.02048331 22.458307,7.98732596 C22.4607518,7.98803191 22.4631968,7.98873804 22.4656419,7.98944434 C23.1703647,6.79857443 24.4678835,6 25.9519193,6 C28.1876126,6 30,7.81238745 30,10.0480807 C30,12.2837739 28.1876126,14.0961613 25.9519193,14.0961613 C25.023608,14.0961613 24.1682789,13.7836873 23.4853746,13.2581818 C23.1798021,13.6355625 22.8842,14.0433134 22.6090935,14.481737 C21.539072,16.1869771 21.2729275,17.1568192 21.0974634,17.954706 C21.2411338,19.5093194 21.5538296,21.7764758 21.9223853,22.9452164 C22.4300095,24.5549623 22.1138743,24.4880949 21.810562,24.4880951 C21.5072497,24.4880952 19.0951043,24.5015839 18.5246327,24.5015839 C18.1493201,24.5015839 17.3888937,23.3977396 16.8147657,22.1800396 C15.5114913,22.4783414 13.9144334,22.607994 12.0545628,22.6079939 C10.2497518,22.6079938 8.99586306,22.4324139 8.04459993,22.1903393 C7.0165786,23.2784249 6.38540846,24.5558766 5.97647095,24.5015839 C5.30837525,24.4128839 3.68000724,24.5015839 3.11855144,24.5015839 C2.55709564,24.5015838 2.65659111,23.9954445 2.81783784,23.6437457 C2.88157726,23.5047223 3.49409061,22.2962279 4.21156729,20.8854905 Z" id="Oval-3" sketch:type="MSShapeGroup"></path>
        </g>
    </g>
</svg>